<?xml version="1.0" standalone="no"?>
<!DOCTYPE svg PUBLIC "-//W3C//DTD SVG 20010904//EN"
 "http://www.w3.org/TR/2001/REC-SVG-20010904/DTD/svg10.dtd">
<svg version="1.0" xmlns="http://www.w3.org/2000/svg"
 width="260.000000pt" height="260.000000pt" viewBox="0 0 260.000000 260.000000"
 preserveAspectRatio="xMidYMid meet">
<metadata>
Created by potrace 1.11, written by Peter Selinger 2001-2013
</metadata>
<g transform="translate(0.000000,260.000000) scale(0.100000,-0.100000)"
fill="#000000" stroke="none">
<path d="M1131 2590 c-556 -78 -987 -483 -1107 -1041 -26 -118 -26 -380 0
-498 59 -273 167 -474 360 -667 193 -193 394 -301 667 -360 118 -26 380 -26
498 0 273 59 474 167 667 360 193 193 301 394 360 667 14 62 18 127 18 249 0
122 -4 187 -18 249 -59 273 -167 474 -360 667 -190 189 -384 296 -646 355 -99
23 -340 33 -439 19z m-2 -661 c108 1 171 -7 286 -38 44 -12 98 -27 119 -32 26
-7 61 -31 102 -71 64 -61 70 -71 99 -170 35 -120 -19 -222 -160 -302 -44 -25
-95 -49 -112 -52 -18 -3 -33 -10 -33 -15 0 -6 19 -29 41 -52 35 -36 84 -102
124 -169 22 -36 159 -224 172 -234 36 -30 0 -76 -62 -80 -16 0 -53 -4 -81 -8
-50 -7 -50 -7 -75 31 -64 97 -85 131 -101 166 -9 20 -21 37 -26 37 -5 0 -21
22 -35 48 -14 26 -39 59 -55 74 -16 14 -36 34 -43 45 -19 25 -103 93 -117 93
-6 0 -13 -35 -16 -82 -7 -110 -19 -315 -21 -353 -1 -50 -15 -62 -77 -68 -105
-10 -96 -46 -93 361 2 197 6 420 10 497 4 82 3 180 -3 238 -6 54 -9 104 -6
111 6 16 46 35 58 29 4 -3 51 -5 105 -4z"/>
<path d="M1152 1567 c-3 -164 -3 -165 20 -171 50 -13 136 -5 219 20 101 31
129 52 153 115 16 42 16 49 3 75 -17 33 -61 76 -96 94 -31 16 -54 19 -186 26
l-110 6 -3 -165z"/>
</g>
</svg>
